
<svg xmlns="http://www.w3.org/2000/svg" viewBox="0 0 330 330">
  <rect width="100%" height="100%" fill="#FAF1E4"/>
  <g transform="translate(20, 20)">
    <circle cx="115" cy="5" r="4.5" fill="black" />
<rect x="115" y="0.5" width="10" height="9" fill="black" />
<circle cx="125" cy="5" r="4.5" fill="black" />
<circle cx="155" cy="5" r="4.5" fill="black" />
<rect x="155" y="0.5" width="10" height="9" fill="black" />
<rect x="150.5" y="5" width="9" height="10" fill="black" />
<circle cx="165" cy="5" r="4.5" fill="black" />
<circle cx="185" cy="5" r="4.5" fill="black" />
<rect x="180.5" y="5" width="9" height="10" fill="black" />
<circle cx="205" cy="5" r="4.5" fill="black" />
<rect x="200.5" y="5" width="9" height="10" fill="black" />
<circle cx="95" cy="15" r="4.5" fill="black" />
<rect x="95" y="10.5" width="10" height="9" fill="black" />
<rect x="90.5" y="15" width="9" height="10" fill="black" />
<circle cx="105" cy="15" r="4.5" fill="black" />
<circle cx="135" cy="15" r="4.5" fill="black" />
<rect x="135" y="10.5" width="10" height="9" fill="black" />
<rect x="130.5" y="15" width="9" height="10" fill="black" />
<rect x="135" y="15" width="10" height="10" fill="black" />
<circle cx="145" cy="15" r="4.5" fill="black" />
<rect x="145" y="10.5" width="10" height="9" fill="black" />
<rect x="140.5" y="15" width="9" height="10" fill="black" />
<circle cx="155" cy="15" r="4.5" fill="black" />
<circle cx="185" cy="15" r="4.5" fill="black" />
<rect x="185" y="10.5" width="10" height="9" fill="black" />
<rect x="180.5" y="15" width="9" height="10" fill="black" />
<circle cx="195" cy="15" r="4.5" fill="black" />
<rect x="195" y="10.5" width="10" height="9" fill="black" />
<circle cx="205" cy="15" r="4.5" fill="black" />
<rect x="200.5" y="15" width="9" height="10" fill="black" />
<circle cx="95" cy="25" r="4.5" fill="black" />
<rect x="90.5" y="25" width="9" height="10" fill="black" />
<circle cx="115" cy="25" r="4.5" fill="black" />
<rect x="115" y="20.5" width="10" height="9" fill="black" />
<circle cx="125" cy="25" r="4.5" fill="black" />
<rect x="125" y="20.5" width="10" height="9" fill="black" />
<circle cx="135" cy="25" r="4.5" fill="black" />
<rect x="135" y="20.5" width="10" height="9" fill="black" />
<circle cx="145" cy="25" r="4.5" fill="black" />
<rect x="140.5" y="25" width="9" height="10" fill="black" />
<circle cx="185" cy="25" r="4.5" fill="black" />
<rect x="180.5" y="25" width="9" height="10" fill="black" />
<circle cx="205" cy="25" r="4.5" fill="black" />
<rect x="200.5" y="25" width="9" height="10" fill="black" />
<circle cx="95" cy="35" r="4.5" fill="black" />
<rect x="95" y="30.5" width="10" height="9" fill="black" />
<rect x="90.5" y="35" width="9" height="10" fill="black" />
<rect x="95" y="35" width="10" height="10" fill="black" />
<circle cx="105" cy="35" r="4.5" fill="black" />
<rect x="100.5" y="35" width="9" height="10" fill="black" />
<circle cx="145" cy="35" r="4.5" fill="black" />
<circle cx="165" cy="35" r="4.5" fill="black" />
<rect x="165" y="30.5" width="10" height="9" fill="black" />
<circle cx="175" cy="35" r="4.5" fill="black" />
<rect x="175" y="30.5" width="10" height="9" fill="black" />
<rect x="170.5" y="35" width="9" height="10" fill="black" />
<circle cx="185" cy="35" r="4.5" fill="black" />
<rect x="185" y="30.5" width="10" height="9" fill="black" />
<circle cx="195" cy="35" r="4.5" fill="black" />
<rect x="195" y="30.5" width="10" height="9" fill="black" />
<rect x="190.5" y="35" width="9" height="10" fill="black" />
<circle cx="205" cy="35" r="4.5" fill="black" />
<circle cx="85" cy="45" r="4.5" fill="black" />
<rect x="85" y="40.5" width="10" height="9" fill="black" />
<circle cx="95" cy="45" r="4.5" fill="black" />
<rect x="95" y="40.5" width="10" height="9" fill="black" />
<rect x="90.5" y="45" width="9" height="10" fill="black" />
<rect x="95" y="45" width="10" height="10" fill="black" />
<circle cx="105" cy="45" r="4.5" fill="black" />
<rect x="100.5" y="45" width="9" height="10" fill="black" />
<circle cx="155" cy="45" r="4.5" fill="black" />
<circle cx="175" cy="45" r="4.5" fill="black" />
<circle cx="195" cy="45" r="4.5" fill="black" />
<rect x="190.5" y="45" width="9" height="10" fill="black" />
<circle cx="95" cy="55" r="4.5" fill="black" />
<rect x="95" y="50.5" width="10" height="9" fill="black" />
<circle cx="105" cy="55" r="4.5" fill="black" />
<rect x="100.5" y="55" width="9" height="10" fill="black" />
<circle cx="125" cy="55" r="4.5" fill="black" />
<rect x="120.5" y="55" width="9" height="10" fill="black" />
<circle cx="195" cy="55" r="4.5" fill="black" />
<rect x="195" y="50.5" width="10" height="9" fill="black" />
<circle cx="205" cy="55" r="4.5" fill="black" />
<rect x="200.5" y="55" width="9" height="10" fill="black" />
<circle cx="85" cy="65" r="4.5" fill="black" />
<rect x="80.5" y="65" width="9" height="10" fill="black" />
<circle cx="105" cy="65" r="4.5" fill="black" />
<circle cx="125" cy="65" r="4.5" fill="black" />
<rect x="120.5" y="65" width="9" height="10" fill="black" />
<circle cx="145" cy="65" r="4.5" fill="black" />
<circle cx="165" cy="65" r="4.5" fill="black" />
<circle cx="185" cy="65" r="4.5" fill="black" />
<rect x="180.5" y="65" width="9" height="10" fill="black" />
<circle cx="205" cy="65" r="4.5" fill="black" />
<circle cx="85" cy="75" r="4.5" fill="black" />
<rect x="80.5" y="75" width="9" height="10" fill="black" />
<circle cx="125" cy="75" r="4.5" fill="black" />
<circle cx="175" cy="75" r="4.5" fill="black" />
<rect x="175" y="70.5" width="10" height="9" fill="black" />
<circle cx="185" cy="75" r="4.5" fill="black" />
<rect x="185" y="70.5" width="10" height="9" fill="black" />
<circle cx="195" cy="75" r="4.5" fill="black" />
<rect x="190.5" y="75" width="9" height="10" fill="black" />
<circle cx="25" cy="85" r="4.5" fill="black" />
<rect x="25" y="80.5" width="10" height="9" fill="black" />
<rect x="20.5" y="85" width="9" height="10" fill="black" />
<rect x="25" y="85" width="10" height="10" fill="black" />
<circle cx="35" cy="85" r="4.5" fill="black" />
<rect x="30.5" y="85" width="9" height="10" fill="black" />
<circle cx="65" cy="85" r="4.5" fill="black" />
<rect x="65" y="80.5" width="10" height="9" fill="black" />
<circle cx="75" cy="85" r="4.5" fill="black" />
<rect x="75" y="80.5" width="10" height="9" fill="black" />
<circle cx="85" cy="85" r="4.5" fill="black" />
<rect x="80.5" y="85" width="9" height="10" fill="black" />
<circle cx="135" cy="85" r="4.5" fill="black" />
<rect x="135" y="80.5" width="10" height="9" fill="black" />
<rect x="130.5" y="85" width="9" height="10" fill="black" />
<rect x="135" y="85" width="10" height="10" fill="black" />
<circle cx="145" cy="85" r="4.5" fill="black" />
<rect x="140.5" y="85" width="9" height="10" fill="black" />
<circle cx="195" cy="85" r="4.5" fill="black" />
<circle cx="215" cy="85" r="4.5" fill="black" />
<rect x="215" y="80.5" width="10" height="9" fill="black" />
<rect x="210.5" y="85" width="9" height="10" fill="black" />
<rect x="215" y="85" width="10" height="10" fill="black" />
<circle cx="225" cy="85" r="4.5" fill="black" />
<rect x="220.5" y="85" width="9" height="10" fill="black" />
<circle cx="245" cy="85" r="4.5" fill="black" />
<rect x="240.5" y="85" width="9" height="10" fill="black" />
<circle cx="5" cy="95" r="4.5" fill="black" />
<rect x="0.5" y="95" width="9" height="10" fill="black" />
<circle cx="25" cy="95" r="4.5" fill="black" />
<rect x="25" y="90.5" width="10" height="9" fill="black" />
<circle cx="35" cy="95" r="4.5" fill="black" />
<rect x="35" y="90.5" width="10" height="9" fill="black" />
<circle cx="45" cy="95" r="4.5" fill="black" />
<circle cx="85" cy="95" r="4.5" fill="black" />
<rect x="80.5" y="95" width="9" height="10" fill="black" />
<circle cx="115" cy="95" r="4.5" fill="black" />
<rect x="115" y="90.5" width="10" height="9" fill="black" />
<rect x="110.5" y="95" width="9" height="10" fill="black" />
<circle cx="125" cy="95" r="4.5" fill="black" />
<rect x="125" y="90.5" width="10" height="9" fill="black" />
<circle cx="135" cy="95" r="4.5" fill="black" />
<rect x="135" y="90.5" width="10" height="9" fill="black" />
<circle cx="145" cy="95" r="4.5" fill="black" />
<rect x="145" y="90.5" width="10" height="9" fill="black" />
<rect x="140.5" y="95" width="9" height="10" fill="black" />
<rect x="145" y="95" width="10" height="10" fill="black" />
<circle cx="155" cy="95" r="4.5" fill="black" />
<rect x="155" y="90.5" width="10" height="9" fill="black" />
<rect x="150.5" y="95" width="9" height="10" fill="black" />
<rect x="155" y="95" width="10" height="10" fill="black" />
<circle cx="165" cy="95" r="4.5" fill="black" />
<rect x="165" y="90.5" width="10" height="9" fill="black" />
<rect x="160.5" y="95" width="9" height="10" fill="black" />
<circle cx="175" cy="95" r="4.5" fill="black" />
<circle cx="215" cy="95" r="4.5" fill="black" />
<rect x="215" y="90.5" width="10" height="9" fill="black" />
<circle cx="225" cy="95" r="4.5" fill="black" />
<rect x="220.5" y="95" width="9" height="10" fill="black" />
<circle cx="245" cy="95" r="4.5" fill="black" />
<rect x="245" y="90.5" width="10" height="9" fill="black" />
<circle cx="255" cy="95" r="4.5" fill="black" />
<rect x="255" y="90.5" width="10" height="9" fill="black" />
<rect x="250.5" y="95" width="9" height="10" fill="black" />
<circle cx="265" cy="95" r="4.5" fill="black" />
<circle cx="285" cy="95" r="4.5" fill="black" />
<circle cx="5" cy="105" r="4.5" fill="black" />
<rect x="5" y="100.5" width="10" height="9" fill="black" />
<circle cx="15" cy="105" r="4.5" fill="black" />
<circle cx="55" cy="105" r="4.5" fill="black" />
<rect x="55" y="100.5" width="10" height="9" fill="black" />
<circle cx="65" cy="105" r="4.5" fill="black" />
<circle cx="85" cy="105" r="4.5" fill="black" />
<rect x="80.5" y="105" width="9" height="10" fill="black" />
<circle cx="105" cy="105" r="4.5" fill="black" />
<rect x="105" y="100.5" width="10" height="9" fill="black" />
<circle cx="115" cy="105" r="4.5" fill="black" />
<circle cx="145" cy="105" r="4.5" fill="black" />
<rect x="145" y="100.5" width="10" height="9" fill="black" />
<circle cx="155" cy="105" r="4.5" fill="black" />
<rect x="155" y="100.5" width="10" height="9" fill="black" />
<rect x="150.5" y="105" width="9" height="10" fill="black" />
<circle cx="165" cy="105" r="4.5" fill="black" />
<circle cx="225" cy="105" r="4.5" fill="black" />
<circle cx="255" cy="105" r="4.5" fill="black" />
<circle cx="275" cy="105" r="4.5" fill="black" />
<circle cx="35" cy="115" r="4.5" fill="black" />
<circle cx="75" cy="115" r="4.5" fill="black" />
<rect x="75" y="110.5" width="10" height="9" fill="black" />
<rect x="70.5" y="115" width="9" height="10" fill="black" />
<circle cx="85" cy="115" r="4.5" fill="black" />
<rect x="85" y="110.5" width="10" height="9" fill="black" />
<circle cx="95" cy="115" r="4.5" fill="black" />
<circle cx="155" cy="115" r="4.5" fill="black" />
<rect x="150.5" y="115" width="9" height="10" fill="black" />
<circle cx="195" cy="115" r="4.5" fill="black" />
<rect x="195" y="110.5" width="10" height="9" fill="black" />
<rect x="190.5" y="115" width="9" height="10" fill="black" />
<rect x="195" y="115" width="10" height="10" fill="black" />
<circle cx="205" cy="115" r="4.5" fill="black" />
<rect x="200.5" y="115" width="9" height="10" fill="black" />
<circle cx="235" cy="115" r="4.5" fill="black" />
<rect x="230.5" y="115" width="9" height="10" fill="black" />
<circle cx="285" cy="115" r="4.5" fill="black" />
<rect x="280.5" y="115" width="9" height="10" fill="black" />
<circle cx="45" cy="125" r="4.5" fill="black" />
<circle cx="65" cy="125" r="4.5" fill="black" />
<rect x="65" y="120.5" width="10" height="9" fill="black" />
<circle cx="75" cy="125" r="4.5" fill="black" />
<rect x="70.5" y="125" width="9" height="10" fill="black" />
<circle cx="115" cy="125" r="4.5" fill="black" />
<rect x="115" y="120.5" width="10" height="9" fill="black" />
<rect x="110.5" y="125" width="9" height="10" fill="black" />
<circle cx="125" cy="125" r="4.5" fill="black" />
<rect x="125" y="120.5" width="10" height="9" fill="black" />
<circle cx="135" cy="125" r="4.5" fill="black" />
<rect x="130.5" y="125" width="9" height="10" fill="black" />
<circle cx="155" cy="125" r="4.5" fill="black" />
<rect x="150.5" y="125" width="9" height="10" fill="black" />
<circle cx="185" cy="125" r="4.5" fill="black" />
<rect x="185" y="120.5" width="10" height="9" fill="black" />
<circle cx="195" cy="125" r="4.5" fill="black" />
<rect x="195" y="120.5" width="10" height="9" fill="black" />
<rect x="190.5" y="125" width="9" height="10" fill="black" />
<circle cx="205" cy="125" r="4.5" fill="black" />
<rect x="205" y="120.5" width="10" height="9" fill="black" />
<circle cx="215" cy="125" r="4.5" fill="black" />
<circle cx="235" cy="125" r="4.5" fill="black" />
<rect x="230.5" y="125" width="9" height="10" fill="black" />
<circle cx="265" cy="125" r="4.5" fill="black" />
<rect x="265" y="120.5" width="10" height="9" fill="black" />
<rect x="260.5" y="125" width="9" height="10" fill="black" />
<circle cx="275" cy="125" r="4.5" fill="black" />
<rect x="275" y="120.5" width="10" height="9" fill="black" />
<circle cx="285" cy="125" r="4.5" fill="black" />
<rect x="280.5" y="125" width="9" height="10" fill="black" />
<circle cx="25" cy="135" r="4.5" fill="black" />
<rect x="25" y="130.5" width="10" height="9" fill="black" />
<circle cx="35" cy="135" r="4.5" fill="black" />
<circle cx="75" cy="135" r="4.5" fill="black" />
<circle cx="115" cy="135" r="4.5" fill="black" />
<circle cx="135" cy="135" r="4.5" fill="black" />
<rect x="135" y="130.5" width="10" height="9" fill="black" />
<rect x="130.5" y="135" width="9" height="10" fill="black" />
<circle cx="145" cy="135" r="4.5" fill="black" />
<rect x="145" y="130.5" width="10" height="9" fill="black" />
<circle cx="155" cy="135" r="4.5" fill="black" />
<circle cx="175" cy="135" r="4.5" fill="black" />
<rect x="170.5" y="135" width="9" height="10" fill="black" />
<circle cx="195" cy="135" r="4.5" fill="black" />
<rect x="190.5" y="135" width="9" height="10" fill="black" />
<circle cx="225" cy="135" r="4.5" fill="black" />
<rect x="225" y="130.5" width="10" height="9" fill="black" />
<circle cx="235" cy="135" r="4.5" fill="black" />
<rect x="230.5" y="135" width="9" height="10" fill="black" />
<circle cx="255" cy="135" r="4.5" fill="black" />
<rect x="255" y="130.5" width="10" height="9" fill="black" />
<rect x="250.5" y="135" width="9" height="10" fill="black" />
<circle cx="265" cy="135" r="4.5" fill="black" />
<circle cx="285" cy="135" r="4.5" fill="black" />
<rect x="280.5" y="135" width="9" height="10" fill="black" />
<circle cx="15" cy="145" r="4.5" fill="black" />
<rect x="10.5" y="145" width="9" height="10" fill="black" />
<circle cx="65" cy="145" r="4.5" fill="black" />
<circle cx="105" cy="145" r="4.5" fill="black" />
<circle cx="125" cy="145" r="4.5" fill="black" />
<rect x="125" y="140.5" width="10" height="9" fill="black" />
<rect x="120.5" y="145" width="9" height="10" fill="black" />
<rect x="125" y="145" width="10" height="10" fill="black" />
<circle cx="135" cy="145" r="4.5" fill="black" />
<rect x="130.5" y="145" width="9" height="10" fill="black" />
<circle cx="175" cy="145" r="4.5" fill="black" />
<circle cx="195" cy="145" r="4.5" fill="black" />
<rect x="195" y="140.5" width="10" height="9" fill="black" />
<rect x="190.5" y="145" width="9" height="10" fill="black" />
<rect x="195" y="145" width="10" height="10" fill="black" />
<circle cx="205" cy="145" r="4.5" fill="black" />
<rect x="205" y="140.5" width="10" height="9" fill="black" />
<rect x="200.5" y="145" width="9" height="10" fill="black" />
<rect x="205" y="145" width="10" height="10" fill="black" />
<circle cx="215" cy="145" r="4.5" fill="black" />
<rect x="210.5" y="145" width="9" height="10" fill="black" />
<circle cx="235" cy="145" r="4.5" fill="black" />
<rect x="235" y="140.5" width="10" height="9" fill="black" />
<circle cx="245" cy="145" r="4.5" fill="black" />
<rect x="245" y="140.5" width="10" height="9" fill="black" />
<rect x="240.5" y="145" width="9" height="10" fill="black" />
<rect x="245" y="145" width="10" height="10" fill="black" />
<circle cx="255" cy="145" r="4.5" fill="black" />
<rect x="250.5" y="145" width="9" height="10" fill="black" />
<circle cx="275" cy="145" r="4.5" fill="black" />
<rect x="275" y="140.5" width="10" height="9" fill="black" />
<circle cx="285" cy="145" r="4.5" fill="black" />
<rect x="280.5" y="145" width="9" height="10" fill="black" />
<circle cx="15" cy="155" r="4.5" fill="black" />
<circle cx="55" cy="155" r="4.5" fill="black" />
<circle cx="75" cy="155" r="4.5" fill="black" />
<rect x="70.5" y="155" width="9" height="10" fill="black" />
<circle cx="95" cy="155" r="4.5" fill="black" />
<rect x="90.5" y="155" width="9" height="10" fill="black" />
<circle cx="115" cy="155" r="4.5" fill="black" />
<rect x="115" y="150.5" width="10" height="9" fill="black" />
<rect x="110.5" y="155" width="9" height="10" fill="black" />
<circle cx="125" cy="155" r="4.5" fill="black" />
<rect x="125" y="150.5" width="10" height="9" fill="black" />
<circle cx="135" cy="155" r="4.5" fill="black" />
<rect x="130.5" y="155" width="9" height="10" fill="black" />
<circle cx="165" cy="155" r="4.5" fill="black" />
<circle cx="195" cy="155" r="4.5" fill="black" />
<rect x="195" y="150.5" width="10" height="9" fill="black" />
<circle cx="205" cy="155" r="4.5" fill="black" />
<rect x="205" y="150.5" width="10" height="9" fill="black" />
<rect x="200.5" y="155" width="9" height="10" fill="black" />
<rect x="205" y="155" width="10" height="10" fill="black" />
<circle cx="215" cy="155" r="4.5" fill="black" />
<rect x="215" y="150.5" width="10" height="9" fill="black" />
<rect x="210.5" y="155" width="9" height="10" fill="black" />
<circle cx="225" cy="155" r="4.5" fill="black" />
<circle cx="245" cy="155" r="4.5" fill="black" />
<rect x="245" y="150.5" width="10" height="9" fill="black" />
<rect x="240.5" y="155" width="9" height="10" fill="black" />
<rect x="245" y="155" width="10" height="10" fill="black" />
<circle cx="255" cy="155" r="4.5" fill="black" />
<rect x="250.5" y="155" width="9" height="10" fill="black" />
<circle cx="285" cy="155" r="4.5" fill="black" />
<circle cx="5" cy="165" r="4.5" fill="black" />
<circle cx="25" cy="165" r="4.5" fill="black" />
<circle cx="65" cy="165" r="4.5" fill="black" />
<rect x="65" y="160.5" width="10" height="9" fill="black" />
<circle cx="75" cy="165" r="4.5" fill="black" />
<rect x="75" y="160.5" width="10" height="9" fill="black" />
<circle cx="85" cy="165" r="4.5" fill="black" />
<rect x="85" y="160.5" width="10" height="9" fill="black" />
<circle cx="95" cy="165" r="4.5" fill="black" />
<rect x="90.5" y="165" width="9" height="10" fill="black" />
<circle cx="115" cy="165" r="4.5" fill="black" />
<circle cx="135" cy="165" r="4.5" fill="black" />
<circle cx="155" cy="165" r="4.5" fill="black" />
<rect x="150.5" y="165" width="9" height="10" fill="black" />
<circle cx="175" cy="165" r="4.5" fill="black" />
<rect x="175" y="160.5" width="10" height="9" fill="black" />
<rect x="170.5" y="165" width="9" height="10" fill="black" />
<circle cx="185" cy="165" r="4.5" fill="black" />
<circle cx="205" cy="165" r="4.5" fill="black" />
<rect x="205" y="160.5" width="10" height="9" fill="black" />
<rect x="200.5" y="165" width="9" height="10" fill="black" />
<circle cx="215" cy="165" r="4.5" fill="black" />
<circle cx="235" cy="165" r="4.5" fill="black" />
<rect x="235" y="160.5" width="10" height="9" fill="black" />
<rect x="230.5" y="165" width="9" height="10" fill="black" />
<circle cx="245" cy="165" r="4.5" fill="black" />
<rect x="245" y="160.5" width="10" height="9" fill="black" />
<circle cx="255" cy="165" r="4.5" fill="black" />
<circle cx="275" cy="165" r="4.5" fill="black" />
<circle cx="55" cy="175" r="4.5" fill="black" />
<circle cx="95" cy="175" r="4.5" fill="black" />
<circle cx="125" cy="175" r="4.5" fill="black" />
<rect x="120.5" y="175" width="9" height="10" fill="black" />
<circle cx="145" cy="175" r="4.5" fill="black" />
<rect x="145" y="170.5" width="10" height="9" fill="black" />
<circle cx="155" cy="175" r="4.5" fill="black" />
<circle cx="175" cy="175" r="4.5" fill="black" />
<rect x="170.5" y="175" width="9" height="10" fill="black" />
<circle cx="205" cy="175" r="4.5" fill="black" />
<rect x="200.5" y="175" width="9" height="10" fill="black" />
<circle cx="235" cy="175" r="4.5" fill="black" />
<circle cx="265" cy="175" r="4.5" fill="black" />
<rect x="260.5" y="175" width="9" height="10" fill="black" />
<circle cx="5" cy="185" r="4.5" fill="black" />
<circle cx="35" cy="185" r="4.5" fill="black" />
<rect x="30.5" y="185" width="9" height="10" fill="black" />
<circle cx="65" cy="185" r="4.5" fill="black" />
<circle cx="105" cy="185" r="4.5" fill="black" />
<rect x="105" y="180.5" width="10" height="9" fill="black" />
<rect x="100.5" y="185" width="9" height="10" fill="black" />
<rect x="105" y="185" width="10" height="10" fill="black" />
<circle cx="115" cy="185" r="4.5" fill="black" />
<rect x="115" y="180.5" width="10" height="9" fill="black" />
<rect x="110.5" y="185" width="9" height="10" fill="black" />
<circle cx="125" cy="185" r="4.5" fill="black" />
<rect x="125" y="180.5" width="10" height="9" fill="black" />
<circle cx="135" cy="185" r="4.5" fill="black" />
<rect x="130.5" y="185" width="9" height="10" fill="black" />
<circle cx="165" cy="185" r="4.5" fill="black" />
<rect x="165" y="180.5" width="10" height="9" fill="black" />
<circle cx="175" cy="185" r="4.5" fill="black" />
<rect x="175" y="180.5" width="10" height="9" fill="black" />
<rect x="170.5" y="185" width="9" height="10" fill="black" />
<circle cx="185" cy="185" r="4.5" fill="black" />
<circle cx="205" cy="185" r="4.5" fill="black" />
<circle cx="225" cy="185" r="4.5" fill="black" />
<rect x="220.5" y="185" width="9" height="10" fill="black" />
<circle cx="245" cy="185" r="4.5" fill="black" />
<rect x="245" y="180.5" width="10" height="9" fill="black" />
<rect x="240.5" y="185" width="9" height="10" fill="black" />
<rect x="245" y="185" width="10" height="10" fill="black" />
<circle cx="255" cy="185" r="4.5" fill="black" />
<rect x="255" y="180.5" width="10" height="9" fill="black" />
<rect x="250.5" y="185" width="9" height="10" fill="black" />
<rect x="255" y="185" width="10" height="10" fill="black" />
<circle cx="265" cy="185" r="4.5" fill="black" />
<rect x="260.5" y="185" width="9" height="10" fill="black" />
<circle cx="25" cy="195" r="4.5" fill="black" />
<rect x="25" y="190.5" width="10" height="9" fill="black" />
<rect x="20.5" y="195" width="9" height="10" fill="black" />
<circle cx="35" cy="195" r="4.5" fill="black" />
<circle cx="55" cy="195" r="4.5" fill="black" />
<rect x="50.5" y="195" width="9" height="10" fill="black" />
<circle cx="75" cy="195" r="4.5" fill="black" />
<circle cx="95" cy="195" r="4.5" fill="black" />
<rect x="95" y="190.5" width="10" height="9" fill="black" />
<circle cx="105" cy="195" r="4.5" fill="black" />
<rect x="105" y="190.5" width="10" height="9" fill="black" />
<circle cx="115" cy="195" r="4.5" fill="black" />
<rect x="110.5" y="195" width="9" height="10" fill="black" />
<circle cx="135" cy="195" r="4.5" fill="black" />
<circle cx="155" cy="195" r="4.5" fill="black" />
<circle cx="175" cy="195" r="4.5" fill="black" />
<circle cx="195" cy="195" r="4.5" fill="black" />
<circle cx="215" cy="195" r="4.5" fill="black" />
<rect x="215" y="190.5" width="10" height="9" fill="black" />
<circle cx="225" cy="195" r="4.5" fill="black" />
<circle cx="245" cy="195" r="4.5" fill="black" />
<rect x="245" y="190.5" width="10" height="9" fill="black" />
<circle cx="255" cy="195" r="4.5" fill="black" />
<rect x="255" y="190.5" width="10" height="9" fill="black" />
<rect x="250.5" y="195" width="9" height="10" fill="black" />
<rect x="255" y="195" width="10" height="10" fill="black" />
<circle cx="265" cy="195" r="4.5" fill="black" />
<rect x="260.5" y="195" width="9" height="10" fill="black" />
<circle cx="285" cy="195" r="4.5" fill="black" />
<rect x="280.5" y="195" width="9" height="10" fill="black" />
<circle cx="15" cy="205" r="4.5" fill="black" />
<rect x="15" y="200.5" width="10" height="9" fill="black" />
<circle cx="25" cy="205" r="4.5" fill="black" />
<circle cx="55" cy="205" r="4.5" fill="black" />
<rect x="55" y="200.5" width="10" height="9" fill="black" />
<circle cx="65" cy="205" r="4.5" fill="black" />
<circle cx="85" cy="205" r="4.5" fill="black" />
<rect x="80.5" y="205" width="9" height="10" fill="black" />
<circle cx="115" cy="205" r="4.5" fill="black" />
<rect x="110.5" y="205" width="9" height="10" fill="black" />
<circle cx="145" cy="205" r="4.5" fill="black" />
<circle cx="185" cy="205" r="4.5" fill="black" />
<circle cx="255" cy="205" r="4.5" fill="black" />
<rect x="255" y="200.5" width="10" height="9" fill="black" />
<rect x="250.5" y="205" width="9" height="10" fill="black" />
<circle cx="265" cy="205" r="4.5" fill="black" />
<rect x="265" y="200.5" width="10" height="9" fill="black" />
<circle cx="275" cy="205" r="4.5" fill="black" />
<rect x="275" y="200.5" width="10" height="9" fill="black" />
<rect x="270.5" y="205" width="9" height="10" fill="black" />
<rect x="275" y="205" width="10" height="10" fill="black" />
<circle cx="285" cy="205" r="4.5" fill="black" />
<rect x="280.5" y="205" width="9" height="10" fill="black" />
<circle cx="85" cy="215" r="4.5" fill="black" />
<rect x="80.5" y="215" width="9" height="10" fill="black" />
<circle cx="115" cy="215" r="4.5" fill="black" />
<circle cx="135" cy="215" r="4.5" fill="black" />
<circle cx="175" cy="215" r="4.5" fill="black" />
<circle cx="195" cy="215" r="4.5" fill="black" />
<rect x="190.5" y="215" width="9" height="10" fill="black" />
<circle cx="255" cy="215" r="4.5" fill="black" />
<circle cx="275" cy="215" r="4.5" fill="black" />
<rect x="275" y="210.5" width="10" height="9" fill="black" />
<rect x="270.5" y="215" width="9" height="10" fill="black" />
<circle cx="285" cy="215" r="4.5" fill="black" />
<circle cx="85" cy="225" r="4.5" fill="black" />
<rect x="85" y="220.5" width="10" height="9" fill="black" />
<circle cx="95" cy="225" r="4.5" fill="black" />
<rect x="90.5" y="225" width="9" height="10" fill="black" />
<circle cx="125" cy="225" r="4.5" fill="black" />
<circle cx="155" cy="225" r="4.5" fill="black" />
<rect x="155" y="220.5" width="10" height="9" fill="black" />
<rect x="150.5" y="225" width="9" height="10" fill="black" />
<rect x="155" y="225" width="10" height="10" fill="black" />
<circle cx="165" cy="225" r="4.5" fill="black" />
<rect x="160.5" y="225" width="9" height="10" fill="black" />
<circle cx="185" cy="225" r="4.5" fill="black" />
<rect x="185" y="220.5" width="10" height="9" fill="black" />
<rect x="180.5" y="225" width="9" height="10" fill="black" />
<circle cx="195" cy="225" r="4.5" fill="black" />
<circle cx="265" cy="225" r="4.5" fill="black" />
<rect x="265" y="220.5" width="10" height="9" fill="black" />
<circle cx="275" cy="225" r="4.5" fill="black" />
<circle cx="95" cy="235" r="4.5" fill="black" />
<rect x="95" y="230.5" width="10" height="9" fill="black" />
<circle cx="105" cy="235" r="4.5" fill="black" />
<rect x="100.5" y="235" width="9" height="10" fill="black" />
<circle cx="155" cy="235" r="4.5" fill="black" />
<rect x="155" y="230.5" width="10" height="9" fill="black" />
<circle cx="165" cy="235" r="4.5" fill="black" />
<rect x="160.5" y="235" width="9" height="10" fill="black" />
<circle cx="185" cy="235" r="4.5" fill="black" />
<circle cx="105" cy="245" r="4.5" fill="black" />
<rect x="100.5" y="245" width="9" height="10" fill="black" />
<circle cx="125" cy="245" r="4.5" fill="black" />
<circle cx="165" cy="245" r="4.5" fill="black" />
<circle cx="255" cy="245" r="4.5" fill="black" />
<rect x="255" y="240.5" width="10" height="9" fill="black" />
<rect x="250.5" y="245" width="9" height="10" fill="black" />
<rect x="255" y="245" width="10" height="10" fill="black" />
<circle cx="265" cy="245" r="4.5" fill="black" />
<rect x="260.5" y="245" width="9" height="10" fill="black" />
<circle cx="285" cy="245" r="4.5" fill="black" />
<circle cx="85" cy="255" r="4.5" fill="black" />
<rect x="85" y="250.5" width="10" height="9" fill="black" />
<rect x="80.5" y="255" width="9" height="10" fill="black" />
<circle cx="95" cy="255" r="4.5" fill="black" />
<rect x="95" y="250.5" width="10" height="9" fill="black" />
<circle cx="105" cy="255" r="4.5" fill="black" />
<circle cx="145" cy="255" r="4.5" fill="black" />
<circle cx="185" cy="255" r="4.5" fill="black" />
<rect x="185" y="250.5" width="10" height="9" fill="black" />
<rect x="180.5" y="255" width="9" height="10" fill="black" />
<circle cx="195" cy="255" r="4.5" fill="black" />
<circle cx="245" cy="255" r="4.5" fill="black" />
<rect x="245" y="250.5" width="10" height="9" fill="black" />
<circle cx="255" cy="255" r="4.5" fill="black" />
<rect x="255" y="250.5" width="10" height="9" fill="black" />
<circle cx="265" cy="255" r="4.5" fill="black" />
<rect x="265" y="250.5" width="10" height="9" fill="black" />
<rect x="260.5" y="255" width="9" height="10" fill="black" />
<circle cx="275" cy="255" r="4.5" fill="black" />
<circle cx="85" cy="265" r="4.5" fill="black" />
<circle cx="115" cy="265" r="4.5" fill="black" />
<rect x="115" y="260.5" width="10" height="9" fill="black" />
<rect x="110.5" y="265" width="9" height="10" fill="black" />
<rect x="115" y="265" width="10" height="10" fill="black" />
<circle cx="125" cy="265" r="4.5" fill="black" />
<rect x="125" y="260.5" width="10" height="9" fill="black" />
<rect x="120.5" y="265" width="9" height="10" fill="black" />
<circle cx="135" cy="265" r="4.5" fill="black" />
<circle cx="185" cy="265" r="4.5" fill="black" />
<circle cx="205" cy="265" r="4.5" fill="black" />
<rect x="200.5" y="265" width="9" height="10" fill="black" />
<circle cx="235" cy="265" r="4.5" fill="black" />
<circle cx="265" cy="265" r="4.5" fill="black" />
<circle cx="285" cy="265" r="4.5" fill="black" />
<circle cx="105" cy="275" r="4.5" fill="black" />
<rect x="105" y="270.5" width="10" height="9" fill="black" />
<circle cx="115" cy="275" r="4.5" fill="black" />
<rect x="115" y="270.5" width="10" height="9" fill="black" />
<circle cx="125" cy="275" r="4.5" fill="black" />
<circle cx="155" cy="275" r="4.5" fill="black" />
<circle cx="205" cy="275" r="4.5" fill="black" />
<rect x="205" y="270.5" width="10" height="9" fill="black" />
<rect x="200.5" y="275" width="9" height="10" fill="black" />
<rect x="205" y="275" width="10" height="10" fill="black" />
<circle cx="215" cy="275" r="4.5" fill="black" />
<rect x="210.5" y="275" width="9" height="10" fill="black" />
<circle cx="245" cy="275" r="4.5" fill="black" />
<rect x="245" y="270.5" width="10" height="9" fill="black" />
<circle cx="255" cy="275" r="4.5" fill="black" />
<circle cx="275" cy="275" r="4.5" fill="black" />
<rect x="270.5" y="275" width="9" height="10" fill="black" />
<circle cx="95" cy="285" r="4.5" fill="black" />
<circle cx="145" cy="285" r="4.5" fill="black" />
<circle cx="185" cy="285" r="4.5" fill="black" />
<rect x="185" y="280.5" width="10" height="9" fill="black" />
<circle cx="195" cy="285" r="4.5" fill="black" />
<rect x="195" y="280.5" width="10" height="9" fill="black" />
<circle cx="205" cy="285" r="4.5" fill="black" />
<rect x="205" y="280.5" width="10" height="9" fill="black" />
<circle cx="215" cy="285" r="4.5" fill="black" />
<rect x="215" y="280.5" width="10" height="9" fill="black" />
<circle cx="225" cy="285" r="4.5" fill="black" />
<rect x="225" y="280.5" width="10" height="9" fill="black" />
<circle cx="235" cy="285" r="4.5" fill="black" />
<circle cx="275" cy="285" r="4.5" fill="black" />

    <rect x="0" y="0" width="70" height="70" fill="black" rx="16"/>
    <rect x="10" y="10" width="50" height="50" fill="#FAF1E4" rx="11"/>
    <rect x="20" y="20" width="30" height="30" fill="black" rx="7.5"/>
  
    <rect x="220" y="0" width="70" height="70" fill="black" rx="16"/>
    <rect x="230" y="10" width="50" height="50" fill="#FAF1E4" rx="11"/>
    <rect x="240" y="20" width="30" height="30" fill="black" rx="7.5"/>
  
    <rect x="0" y="220" width="70" height="70" fill="black" rx="16"/>
    <rect x="10" y="230" width="50" height="50" fill="#FAF1E4" rx="11"/>
    <rect x="20" y="240" width="30" height="30" fill="black" rx="7.5"/>
  
    <rect x="200" y="200" width="50" height="50" fill="black" rx="10"/>
    <rect x="210" y="210" width="30" height="30" fill="#FAF1E4" rx="5"/>
    <rect x="220" y="220" width="10" height="10" fill="black" rx="4.5"/>
  
  </g>
</svg>
